<?xml version="1.0" encoding="UTF-8" standalone="no"?><!DOCTYPE svg PUBLIC "-//W3C//DTD SVG 1.1//EN" "http://www.w3.org/Graphics/SVG/1.1/DTD/svg11.dtd"><svg width="100%" height="100%" viewBox="0 0 57 50" version="1.1" xmlns="http://www.w3.org/2000/svg" xmlns:xlink="http://www.w3.org/1999/xlink" xml:space="preserve" style="fill-rule:evenodd;clip-rule:evenodd;stroke-linejoin:round;"><rect id="Icons" x="-414" y="-1047.71" width="2941" height="1414.71" style="fill:none;"/><clipPath id="_clip1"><rect id="Icons1" x="-414" y="-1047.71" width="2941" height="1414.71"/></clipPath><g clip-path="url(#_clip1)"><clipPath id="_clip2"><rect id="angle" x="4.448" y="1.782" width="46.462" height="46.462"/></clipPath><g clip-path="url(#_clip2)"><g id="Layer-1"><path d="M44.536,46.914l-39.013,0l0,-38.015c-0.564,-0.637 -0.907,-1.475 -0.907,-2.392c0,-1.992 1.617,-3.61 3.61,-3.61c1.992,0 3.609,1.618 3.609,3.61c0,1.042 -0.442,1.981 -1.148,2.64l0.059,16.202c12.418,2.307 17.517,8.606 17.38,17.692l15.39,-0.031c0.502,-1.224 1.706,-2.087 3.11,-2.087c1.855,0 3.36,1.506 3.36,3.36c0,1.855 -1.505,3.361 -3.36,3.361c-0.79,0 -1.516,-0.273 -2.09,-0.73Z" style="fill:#fff;stroke:#848484;stroke-width:1.41px;"/></g></g></g></svg>