<?xml version="1.0" encoding="UTF-8" standalone="no"?><!DOCTYPE svg PUBLIC "-//W3C//DTD SVG 1.1//EN" "http://www.w3.org/Graphics/SVG/1.1/DTD/svg11.dtd"><svg width="100%" height="100%" viewBox="0 0 50 48" version="1.1" xmlns="http://www.w3.org/2000/svg" xmlns:xlink="http://www.w3.org/1999/xlink" xml:space="preserve" style="fill-rule:evenodd;clip-rule:evenodd;stroke-linecap:round;stroke-linejoin:round;"><rect id="Icons" x="-659" y="-518.715" width="2941" height="1414.71" style="fill:none;"/><clipPath id="_clip1"><rect id="Icons1" x="-659" y="-518.715" width="2941" height="1414.71"/></clipPath><g clip-path="url(#_clip1)"><g id="Layer-1"><path id="path4826" d="M9.424,14.709l0,-7.919l7.92,0" style="fill:none;stroke:#848484;stroke-width:4.98px;"/><path id="use4839" d="M17.344,38.467l-7.92,0l0,-7.919" style="fill:none;stroke:#848484;stroke-width:4.98px;"/><path id="use4841" d="M41.102,30.548l0,7.919l-7.92,0" style="fill:none;stroke:#848484;stroke-width:4.98px;"/><path id="use4843" d="M33.182,6.79l7.92,0l0,7.919" style="fill:none;stroke:#848484;stroke-width:4.98px;"/><circle id="path4849" cx="25.829" cy="22.628" r="7.354" style="fill:#fff;fill-opacity:0;stroke:#848484;stroke-width:4.98px;"/><path id="path4826.-8" d="M9.424,14.709l0,-7.919l7.92,0" style="fill:none;stroke:#fff;stroke-width:2.26px;"/><path id="use4893" d="M17.344,38.467l-7.92,0l0,-7.919" style="fill:none;stroke:#fff;stroke-width:2.26px;"/><path id="use4913" d="M41.102,30.548l0,7.919l-7.92,0" style="fill:none;stroke:#fff;stroke-width:2.26px;"/><path id="use4915" d="M33.182,6.79l7.92,0l0,7.919" style="fill:none;stroke:#fff;stroke-width:2.26px;"/><g id="path4849.-7"><circle cx="25.829" cy="22.628" r="7.354" style="fill:#757575;fill-opacity:0;"/><path d="M25.947,13.579l0.114,0.002l0.115,0.003l0.117,0.005l0.114,0.007l0.114,0.008l0.117,0.009l0.116,0.011l0.113,0.013l0.11,0.013l0.116,0.015l0.112,0.017l0.112,0.018l0.111,0.019l0.112,0.021l0.111,0.022l0.107,0.022l0.113,0.026l0.11,0.026l0.107,0.027l0.109,0.028l0.108,0.031l0.109,0.031l0.104,0.032l0.108,0.034l0.107,0.036l0.1,0.035l0.106,0.037l0.105,0.04l0.102,0.039l0.105,0.042l0.101,0.042l0.1,0.044l0.1,0.044l0.1,0.046l0.101,0.048l0.098,0.048l0.098,0.049l0.097,0.051l0.097,0.052l0.096,0.053l0.095,0.054l0.095,0.055l0.094,0.056l0.093,0.058l0.091,0.057l0.092,0.06l0.091,0.061l0.088,0.06l0.09,0.063l0.087,0.063l0.089,0.065l0.088,0.067l0.084,0.066l0.084,0.067l0.084,0.067l0.086,0.073l0.082,0.07l0.08,0.07l0.082,0.073l0.079,0.074l0.079,0.074l0.08,0.077l0.075,0.074l0.076,0.077l0.077,0.08l0.073,0.077l0.073,0.08l0.073,0.081l0.072,0.082l0.071,0.083l0.068,0.082l0.069,0.084l0.068,0.086l0.067,0.086l0.066,0.086l0.063,0.087l0.065,0.089l0.063,0.09l0.061,0.089l0.06,0.09l0.06,0.092l0.059,0.093l0.057,0.093l0.055,0.092l0.055,0.094l0.054,0.096l0.053,0.096l0.052,0.096l0.051,0.099l0.049,0.097l0.048,0.098l0.048,0.1l0.045,0.099l0.045,0.102l0.044,0.1l0.043,0.103l0.04,0.102l0.04,0.102l0.039,0.106l0.038,0.104l0.036,0.104l0.035,0.106l0.034,0.106l0.032,0.107l0.032,0.107l0.029,0.108l0.029,0.108l0.028,0.11l0.025,0.109l0.025,0.109l0.023,0.111l0.022,0.111l0.021,0.11l0.019,0.112l0.018,0.113l0.017,0.112l0.015,0.113l0.013,0.113l0.013,0.114l0.011,0.115l0.009,0.114l0.008,0.115l0.007,0.115l0.005,0.116l0.003,0.116l0.003,0.116l0,0.116l0,0.117l-0.003,0.116l-0.003,0.116l-0.005,0.116l-0.007,0.115l-0.008,0.115l-0.009,0.114l-0.011,0.115l-0.013,0.113l-0.013,0.114l-0.015,0.112l-0.017,0.113l-0.018,0.113l-0.019,0.111l-0.021,0.111l-0.022,0.111l-0.023,0.111l-0.025,0.109l-0.025,0.109l-0.028,0.11l-0.029,0.108l-0.029,0.108l-0.032,0.107l-0.032,0.106l-0.034,0.107l-0.035,0.106l-0.036,0.104l-0.038,0.104l-0.039,0.105l-0.04,0.103l-0.04,0.101l-0.043,0.104l-0.044,0.1l-0.045,0.101l-0.045,0.1l-0.048,0.1l-0.048,0.098l-0.049,0.097l-0.051,0.099l-0.052,0.096l-0.053,0.096l-0.054,0.096l-0.055,0.094l-0.055,0.092l-0.057,0.092l-0.059,0.094l-0.06,0.092l-0.06,0.09l-0.061,0.089l-0.063,0.09l-0.065,0.089l-0.063,0.086l-0.066,0.087l-0.067,0.086l-0.068,0.085l-0.069,0.085l-0.07,0.084l-0.069,0.08l-0.07,0.081l-0.075,0.083l-0.073,0.08l-0.073,0.077l-0.077,0.08l-0.076,0.077l-0.075,0.074l-0.08,0.077l-0.079,0.074l-0.079,0.073l-0.082,0.074l-0.08,0.069l-0.082,0.071l-0.086,0.072l-0.084,0.068l-0.084,0.067l-0.084,0.065l-0.088,0.068l-0.089,0.064l-0.087,0.063l-0.09,0.063l-0.088,0.061l-0.091,0.061l-0.092,0.06l-0.091,0.057l-0.093,0.057l-0.094,0.057l-0.095,0.055l-0.095,0.054l-0.096,0.053l-0.097,0.052l-0.097,0.05l-0.1,0.051l-0.096,0.046l-0.098,0.048l-0.103,0.047l-0.1,0.044l-0.1,0.043l-0.101,0.042l-0.105,0.042l-0.102,0.04l-0.105,0.039l-0.106,0.038l-0.1,0.035l-0.107,0.036l-0.108,0.034l-0.104,0.032l-0.109,0.031l-0.108,0.03l-0.109,0.029l-0.11,0.027l-0.107,0.026l-0.11,0.025l-0.11,0.023l-0.111,0.022l-0.112,0.02l-0.111,0.02l-0.112,0.018l-0.112,0.016l-0.116,0.016l-0.11,0.013l-0.113,0.012l-0.116,0.011l-0.117,0.01l-0.114,0.008l-0.114,0.006l-0.117,0.005l-0.115,0.004l-0.114,0.002l-0.118,0.001l-0.118,-0.001l-0.115,-0.002l-0.114,-0.004l-0.118,-0.005l-0.114,-0.006l-0.113,-0.008l-0.117,-0.01l-0.117,-0.011l-0.113,-0.012l-0.109,-0.013l-0.116,-0.016l-0.112,-0.016l-0.112,-0.018l-0.112,-0.02l-0.111,-0.02l-0.111,-0.022l-0.111,-0.023l-0.11,-0.025l-0.107,-0.026l-0.109,-0.027l-0.109,-0.029l-0.109,-0.03l-0.108,-0.031l-0.105,-0.032l-0.107,-0.034l-0.107,-0.036l-0.1,-0.035l-0.107,-0.038l-0.105,-0.039l-0.102,-0.04l-0.104,-0.042l-0.101,-0.042l-0.101,-0.043l-0.1,-0.044l-0.102,-0.047l-0.099,-0.048l-0.095,-0.046l-0.101,-0.051l-0.097,-0.05l-0.097,-0.052l-0.096,-0.053l-0.095,-0.054l-0.095,-0.055l-0.094,-0.057l-0.093,-0.057l-0.09,-0.057l-0.092,-0.06l-0.092,-0.061l-0.088,-0.061l-0.09,-0.063l-0.087,-0.063l-0.088,-0.064l-0.088,-0.068l-0.085,-0.065l-0.084,-0.067l-0.083,-0.068l-0.087,-0.072l-0.082,-0.071l-0.079,-0.069l-0.082,-0.074l-0.08,-0.073l-0.079,-0.074l-0.079,-0.077l-0.075,-0.074l-0.077,-0.077l-0.077,-0.08l-0.072,-0.077l-0.074,-0.08l-0.074,-0.083l-0.071,-0.081l-0.069,-0.08l-0.07,-0.084l-0.069,-0.085l-0.068,-0.085l-0.067,-0.086l-0.065,-0.087l-0.064,-0.086l-0.064,-0.089l-0.063,-0.09l-0.061,-0.089l-0.06,-0.09l-0.06,-0.092l-0.059,-0.094l-0.058,-0.092l-0.054,-0.092l-0.055,-0.094l-0.055,-0.097l-0.053,-0.095l-0.051,-0.096l-0.052,-0.099l-0.049,-0.097l-0.048,-0.098l-0.047,-0.1l-0.046,-0.1l-0.045,-0.101l-0.043,-0.1l-0.043,-0.104l-0.041,-0.101l-0.04,-0.103l-0.039,-0.105l-0.037,-0.104l-0.037,-0.104l-0.035,-0.106l-0.034,-0.107l-0.032,-0.106l-0.031,-0.107l-0.03,-0.108l-0.029,-0.108l-0.027,-0.11l-0.026,-0.109l-0.025,-0.109l-0.023,-0.111l-0.022,-0.111l-0.02,-0.111l-0.02,-0.111l-0.018,-0.113l-0.016,-0.113l-0.015,-0.112l-0.014,-0.114l-0.012,-0.113l-0.011,-0.115l-0.01,-0.114l-0.008,-0.115l-0.006,-0.115l-0.005,-0.116l-0.004,-0.116l-0.002,-0.116l-0.001,-0.117l0.001,-0.116l0.002,-0.116l0.004,-0.116l0.005,-0.116l0.006,-0.115l0.008,-0.115l0.01,-0.114l0.011,-0.115l0.012,-0.114l0.014,-0.113l0.015,-0.113l0.016,-0.112l0.018,-0.113l0.02,-0.112l0.02,-0.11l0.022,-0.111l0.023,-0.111l0.025,-0.109l0.026,-0.109l0.027,-0.11l0.029,-0.108l0.03,-0.108l0.031,-0.107l0.032,-0.107l0.034,-0.106l0.035,-0.106l0.037,-0.104l0.037,-0.104l0.039,-0.106l0.04,-0.102l0.041,-0.102l0.043,-0.103l0.043,-0.1l0.045,-0.102l0.046,-0.099l0.047,-0.1l0.048,-0.098l0.049,-0.097l0.052,-0.099l0.051,-0.096l0.053,-0.096l0.055,-0.096l0.055,-0.094l0.054,-0.092l0.058,-0.093l0.059,-0.093l0.06,-0.092l0.06,-0.09l0.061,-0.089l0.063,-0.09l0.064,-0.089l0.064,-0.087l0.065,-0.086l0.067,-0.086l0.068,-0.086l0.069,-0.084l0.069,-0.082l0.07,-0.083l0.072,-0.082l0.073,-0.081l0.074,-0.08l0.072,-0.077l0.077,-0.08l0.077,-0.077l0.075,-0.074l0.079,-0.077l0.079,-0.074l0.08,-0.074l0.082,-0.073l0.079,-0.07l0.082,-0.07l0.087,-0.073l0.083,-0.067l0.084,-0.067l0.085,-0.066l0.088,-0.067l0.088,-0.065l0.087,-0.063l0.09,-0.063l0.088,-0.06l0.092,-0.061l0.092,-0.06l0.09,-0.057l0.093,-0.058l0.094,-0.056l0.095,-0.055l0.095,-0.054l0.096,-0.053l0.097,-0.052l0.097,-0.051l0.098,-0.049l0.098,-0.048l0.102,-0.048l0.099,-0.046l0.1,-0.044l0.101,-0.044l0.101,-0.042l0.104,-0.042l0.102,-0.039l0.105,-0.04l0.107,-0.037l0.1,-0.035l0.107,-0.036l0.107,-0.034l0.105,-0.032l0.108,-0.031l0.109,-0.031l0.109,-0.028l0.106,-0.027l0.11,-0.026l0.113,-0.026l0.108,-0.022l0.111,-0.022l0.111,-0.021l0.112,-0.019l0.112,-0.018l0.112,-0.017l0.116,-0.015l0.109,-0.013l0.113,-0.013l0.117,-0.011l0.117,-0.009l0.113,-0.008l0.114,-0.007l0.118,-0.005l0.114,-0.003l0.115,-0.002l0.118,-0.001l0.118,0.001Zm-0.19,3.393l-0.075,0.002l-0.075,0.002l-0.07,0.003l-0.074,0.004l-0.073,0.005l-0.07,0.006l-0.069,0.007l-0.071,0.008l-0.075,0.009l-0.068,0.009l-0.071,0.01l-0.07,0.011l-0.07,0.012l-0.069,0.013l-0.069,0.014l-0.072,0.015l-0.064,0.014l-0.068,0.016l-0.07,0.018l-0.067,0.018l-0.066,0.018l-0.066,0.019l-0.068,0.021l-0.065,0.021l-0.064,0.021l-0.07,0.024l-0.064,0.023l-0.063,0.024l-0.065,0.025l-0.062,0.025l-0.065,0.027l-0.064,0.027l-0.063,0.028l-0.063,0.029l-0.06,0.028l-0.062,0.031l-0.061,0.031l-0.061,0.031l-0.06,0.033l-0.06,0.033l-0.059,0.033l-0.059,0.035l-0.058,0.035l-0.058,0.035l-0.059,0.038l-0.057,0.036l-0.056,0.038l-0.057,0.04l-0.055,0.038l-0.057,0.041l-0.054,0.039l-0.053,0.041l-0.054,0.042l-0.055,0.043l-0.053,0.044l-0.049,0.041l-0.052,0.045l-0.054,0.046l-0.049,0.045l-0.051,0.046l-0.049,0.047l-0.047,0.045l-0.051,0.05l-0.048,0.049l-0.045,0.047l-0.048,0.051l-0.046,0.05l-0.045,0.05l-0.045,0.051l-0.044,0.051l-0.045,0.054l-0.042,0.052l-0.042,0.053l-0.042,0.053l-0.041,0.055l-0.042,0.056l-0.039,0.054l-0.038,0.055l-0.039,0.057l-0.039,0.058l-0.036,0.056l-0.036,0.056l-0.036,0.059l-0.036,0.061l-0.035,0.058l-0.033,0.058l-0.033,0.061l-0.032,0.06l-0.031,0.059l-0.032,0.063l-0.03,0.061l-0.029,0.062l-0.029,0.063l-0.028,0.063l-0.027,0.063l-0.026,0.062l-0.026,0.065l-0.025,0.065l-0.024,0.063l-0.023,0.066l-0.023,0.065l-0.022,0.066l-0.021,0.066l-0.02,0.066l-0.02,0.068l-0.018,0.066l-0.018,0.068l-0.017,0.067l-0.016,0.068l-0.016,0.07l-0.014,0.067l-0.014,0.07l-0.013,0.07l-0.012,0.069l-0.011,0.069l-0.01,0.071l-0.009,0.07l-0.009,0.072l-0.008,0.071l-0.006,0.071l-0.006,0.072l-0.005,0.072l-0.005,0.072l-0.003,0.073l-0.002,0.072l-0.001,0.074l-0.001,0.073l0.001,0.073l0.001,0.074l0.002,0.073l0.003,0.073l0.005,0.072l0.005,0.072l0.006,0.072l0.006,0.071l0.008,0.071l0.009,0.071l0.009,0.071l0.01,0.07l0.011,0.07l0.012,0.069l0.013,0.07l0.014,0.069l0.014,0.068l0.016,0.069l0.016,0.069l0.017,0.067l0.018,0.067l0.018,0.067l0.02,0.067l0.02,0.067l0.021,0.066l0.022,0.065l0.023,0.066l0.023,0.065l0.024,0.064l0.025,0.064l0.026,0.066l0.026,0.062l0.027,0.063l0.028,0.063l0.029,0.062l0.029,0.062l0.03,0.061l0.032,0.063l0.031,0.059l0.032,0.061l0.033,0.06l0.033,0.058l0.035,0.059l0.036,0.061l0.036,0.058l0.036,0.057l0.036,0.056l0.039,0.057l0.039,0.058l0.038,0.055l0.039,0.054l0.042,0.055l0.041,0.056l0.042,0.053l0.042,0.053l0.042,0.052l0.043,0.051l0.046,0.054l0.046,0.052l0.044,0.049l0.046,0.05l0.048,0.051l0.045,0.047l0.048,0.048l0.051,0.05l0.047,0.046l0.049,0.047l0.051,0.046l0.049,0.044l0.054,0.047l0.052,0.045l0.049,0.041l0.053,0.043l0.055,0.044l0.054,0.042l0.053,0.04l0.054,0.04l0.057,0.041l0.055,0.038l0.057,0.04l0.056,0.037l0.057,0.037l0.059,0.038l0.058,0.035l0.058,0.035l0.059,0.034l0.059,0.034l0.06,0.033l0.06,0.032l0.061,0.032l0.059,0.029l0.064,0.032l0.063,0.03l0.06,0.027l0.063,0.029l0.064,0.027l0.065,0.027l0.062,0.025l0.065,0.025l0.063,0.024l0.064,0.022l0.07,0.025l0.064,0.021l0.065,0.021l0.068,0.021l0.066,0.019l0.066,0.018l0.067,0.018l0.067,0.016l0.071,0.017l0.068,0.016l0.068,0.014l0.069,0.014l0.069,0.012l0.07,0.013l0.07,0.011l0.071,0.01l0.068,0.009l0.075,0.009l0.071,0.008l0.069,0.007l0.07,0.005l0.073,0.005l0.074,0.005l0.07,0.003l0.075,0.002l0.075,0.001l0.072,0.001l0.072,-0.001l0.074,-0.001l0.075,-0.002l0.071,-0.003l0.073,-0.005l0.073,-0.005l0.07,-0.005l0.069,-0.007l0.072,-0.008l0.075,-0.009l0.067,-0.009l0.071,-0.01l0.07,-0.011l0.07,-0.013l0.069,-0.012l0.069,-0.014l0.069,-0.014l0.068,-0.016l0.07,-0.017l0.068,-0.016l0.066,-0.018l0.066,-0.018l0.066,-0.019l0.069,-0.021l0.064,-0.021l0.065,-0.021l0.07,-0.025l0.063,-0.022l0.063,-0.024l0.066,-0.025l0.062,-0.025l0.064,-0.027l0.064,-0.027l0.064,-0.029l0.059,-0.027l0.063,-0.03l0.065,-0.032l0.058,-0.029l0.061,-0.032l0.06,-0.032l0.06,-0.033l0.059,-0.034l0.059,-0.034l0.058,-0.035l0.058,-0.035l0.059,-0.038l0.057,-0.037l0.056,-0.037l0.058,-0.04l0.055,-0.038l0.056,-0.041l0.054,-0.04l0.053,-0.04l0.055,-0.042l0.054,-0.044l0.054,-0.043l0.048,-0.041l0.053,-0.045l0.053,-0.047l0.049,-0.044l0.051,-0.046l0.05,-0.047l0.047,-0.046l0.05,-0.05l0.048,-0.048l0.046,-0.047l0.048,-0.051l0.046,-0.05l0.043,-0.049l0.046,-0.052l0.046,-0.054l0.043,-0.051l0.043,-0.052l0.042,-0.053l0.041,-0.053l0.042,-0.056l0.041,-0.055l0.039,-0.054l0.039,-0.055l0.039,-0.058l0.038,-0.057l0.036,-0.056l0.036,-0.057l0.036,-0.058l0.037,-0.061l0.034,-0.059l0.033,-0.058l0.033,-0.06l0.033,-0.061l0.03,-0.059l0.032,-0.063l0.03,-0.061l0.029,-0.062l0.029,-0.062l0.028,-0.063l0.027,-0.063l0.026,-0.062l0.026,-0.066l0.026,-0.064l0.023,-0.064l0.024,-0.065l0.022,-0.066l0.022,-0.065l0.021,-0.066l0.02,-0.067l0.02,-0.066l0.018,-0.068l0.018,-0.067l0.017,-0.067l0.016,-0.069l0.016,-0.069l0.014,-0.068l0.014,-0.069l0.013,-0.07l0.012,-0.069l0.011,-0.07l0.01,-0.07l0.01,-0.071l0.008,-0.071l0.008,-0.071l0.007,-0.071l0.006,-0.072l0.005,-0.072l0.004,-0.072l0.003,-0.073l0.002,-0.073l0.002,-0.073l0,-0.074l0,-0.073l-0.002,-0.074l-0.002,-0.072l-0.003,-0.073l-0.004,-0.072l-0.005,-0.072l-0.006,-0.072l-0.007,-0.071l-0.008,-0.071l-0.008,-0.072l-0.01,-0.07l-0.01,-0.071l-0.011,-0.069l-0.012,-0.069l-0.013,-0.07l-0.014,-0.07l-0.014,-0.067l-0.016,-0.07l-0.016,-0.068l-0.017,-0.067l-0.018,-0.068l-0.018,-0.067l-0.02,-0.067l-0.02,-0.066l-0.021,-0.066l-0.022,-0.066l-0.022,-0.065l-0.024,-0.066l-0.023,-0.063l-0.026,-0.065l-0.026,-0.065l-0.026,-0.062l-0.027,-0.063l-0.028,-0.063l-0.029,-0.063l-0.029,-0.062l-0.03,-0.061l-0.032,-0.063l-0.03,-0.059l-0.033,-0.06l-0.033,-0.06l-0.033,-0.059l-0.034,-0.059l-0.037,-0.06l-0.036,-0.059l-0.036,-0.056l-0.036,-0.056l-0.038,-0.058l-0.039,-0.057l-0.039,-0.055l-0.039,-0.054l-0.041,-0.056l-0.042,-0.055l-0.041,-0.053l-0.042,-0.053l-0.043,-0.052l-0.045,-0.054l-0.044,-0.051l-0.044,-0.051l-0.045,-0.05l-0.046,-0.05l-0.048,-0.051l-0.046,-0.047l-0.048,-0.049l-0.05,-0.05l-0.047,-0.045l-0.05,-0.047l-0.051,-0.046l-0.049,-0.045l-0.053,-0.046l-0.053,-0.045l-0.048,-0.041l-0.054,-0.044l-0.054,-0.043l-0.055,-0.042l-0.053,-0.041l-0.054,-0.039l-0.056,-0.041l-0.055,-0.038l-0.058,-0.04l-0.056,-0.038l-0.057,-0.036l-0.059,-0.038l-0.058,-0.035l-0.058,-0.035l-0.059,-0.035l-0.059,-0.033l-0.06,-0.033l-0.06,-0.033l-0.061,-0.031l-0.061,-0.031l-0.062,-0.031l-0.06,-0.028l-0.062,-0.029l-0.064,-0.028l-0.064,-0.027l-0.064,-0.027l-0.062,-0.025l-0.066,-0.025l-0.063,-0.024l-0.063,-0.023l-0.07,-0.024l-0.065,-0.021l-0.064,-0.021l-0.069,-0.021l-0.066,-0.019l-0.066,-0.018l-0.066,-0.018l-0.071,-0.018l-0.067,-0.016l-0.065,-0.014l-0.072,-0.015l-0.069,-0.014l-0.069,-0.013l-0.07,-0.012l-0.07,-0.011l-0.071,-0.01l-0.067,-0.009l-0.075,-0.009l-0.072,-0.008l-0.069,-0.007l-0.07,-0.006l-0.073,-0.005l-0.073,-0.004l-0.071,-0.003l-0.075,-0.002l-0.074,-0.002l-0.072,0l-0.072,0Z" style="fill:#fff;"/></g></g></g></svg>