<?xml version="1.0" encoding="UTF-8" standalone="no"?><!DOCTYPE svg PUBLIC "-//W3C//DTD SVG 1.1//EN" "http://www.w3.org/Graphics/SVG/1.1/DTD/svg11.dtd"><svg width="100%" height="100%" viewBox="0 0 61 48" version="1.1" xmlns="http://www.w3.org/2000/svg" xmlns:xlink="http://www.w3.org/1999/xlink" xml:space="preserve" style="fill-rule:evenodd;clip-rule:evenodd;stroke-linejoin:round;stroke-miterlimit:1.41421;"><rect id="Icons" x="-561" y="-518.715" width="2941" height="1414.71" style="fill:none;"/><clipPath id="_clip1"><rect id="Icons1" x="-561" y="-518.715" width="2941" height="1414.71"/></clipPath><g clip-path="url(#_clip1)"><g id="Layer-1"><path id="path3965.-8" d="M5.259,7.811c-0.143,0.016 -0.289,0.03 -0.536,0.134c-0.025,0.011 -0.068,0.052 -0.096,0.066c-0.042,0.001 -0.042,-0.019 -0.089,-0.014c-0.399,0.043 -0.956,0.447 -1.12,0.811c-0.329,0.727 -0.127,0.931 -0.069,1.237c0.149,0.776 0.769,1.587 1.642,1.82c0.065,0.078 0.127,0.146 0.182,0.2c0.144,0.137 0.29,0.253 0.461,0.384c0.341,0.263 0.771,0.56 1.243,0.869c0.946,0.62 2.006,1.26 2.821,1.622c0.219,0.097 0.75,0.435 0.804,0.484c0.478,0.442 0.856,0.736 1.639,0.873c-0.194,-0.034 -0.045,-0.013 0.079,0.062c0.123,0.074 0.275,0.188 0.374,0.278c0.229,0.209 0.474,0.397 0.735,0.56c0.261,0.163 0.404,0.381 1.124,0.381c-0.192,0 -0.041,-0.002 0.079,0.035c0.12,0.037 0.274,0.1 0.371,0.151c0.594,0.309 1.404,0.672 2.123,0.972c0.359,0.151 0.689,0.284 0.965,0.385c0.138,0.05 0.259,0.09 0.381,0.127c0.018,0.005 0.077,0.007 0.09,0.014c0.056,0.045 0.137,0.113 0.223,0.199c0.101,0.101 0.198,0.215 0.241,0.271c0.021,0.029 0.029,0.044 0.01,0.007c-0.018,-0.033 -0.084,-0.137 -0.1,-0.426c0.015,0.344 0.092,0.473 0.138,0.567c0.049,0.101 0.092,0.167 0.134,0.23c0.082,0.126 0.165,0.232 0.261,0.351c0.191,0.238 0.427,0.506 0.69,0.783c0.207,0.218 0.401,0.452 0.526,0.618c0.056,0.076 0.094,0.131 0.11,0.155c0.004,0.01 0.006,0.045 0.01,0.055c0.042,0.097 0.075,0.163 0.11,0.223c0.07,0.121 0.139,0.22 0.217,0.33c0.154,0.221 0.339,0.467 0.535,0.722c0.29,0.374 1.226,1.756 1.904,2.854c0.437,0.71 0.802,1.253 1.151,1.673c0.05,0.061 0.114,0.109 0.164,0.165c0.004,0.046 -0.031,0.103 -0.024,0.145c0.105,0.597 0.328,0.819 0.56,1.154c0.577,0.831 0.636,1.04 0.708,1.999c0.03,0.392 0.139,0.675 0.22,0.99c-0.498,0.323 -1.36,0.944 -2.065,1.412c-0.544,0.361 -1.637,0.926 -2.614,1.357c-0.489,0.215 -0.954,0.404 -1.312,0.529c-0.359,0.125 -0.734,0.154 -0.475,0.154c-0.491,0 -0.71,0.127 -0.965,0.261c-0.255,0.135 -0.496,0.292 -0.742,0.588c-0.102,0.123 -0.216,0.236 -0.34,0.56c-0.062,0.162 -0.132,0.408 -0.082,0.728c0.05,0.32 0.26,0.657 0.47,0.835c0.421,0.355 0.677,0.328 0.866,0.35c0.189,0.023 0.343,0.025 0.519,0.024c0.875,0 1.648,-0.257 2.49,-0.577c0.279,-0.106 0.233,-0.089 0.378,-0.134c0.028,0.023 0.028,0.055 0.059,0.076c0.318,0.221 0.638,0.288 0.896,0.316c0.518,0.056 0.971,-0.001 1.739,-0.072c0.534,-0.05 1.067,-0.122 1.532,-0.21c0.465,-0.088 0.755,-0.102 1.264,-0.374c-0.216,0.115 -0.007,0.005 0.385,0c0.392,-0.006 0.986,0.025 1.752,0.093c3.331,0.293 4.23,0.226 6.239,-0.251c5.797,-1.379 8.136,-2.426 11.192,-4.995c-0.095,0.08 0.45,-0.211 0.887,-0.31c0.218,-0.049 0.427,-0.075 0.532,-0.079c0.105,-0.003 0.11,0.178 -0.357,-0.195c0.392,0.313 0.672,0.348 0.938,0.395c0.266,0.046 0.518,0.056 0.773,0.048c0.254,-0.008 0.504,-0.035 0.769,-0.1c0.265,-0.065 0.556,-0.112 0.938,-0.495c0.525,-0.524 0.487,-1.268 0.364,-1.659c-0.123,-0.39 -0.309,-0.659 -0.518,-0.914c-0.42,-0.508 -0.908,-0.969 -1.766,-1.14c-0.045,-0.009 -0.151,-0.051 -0.193,-0.076c-0.041,-0.025 0.021,-0.153 0.206,0.33c-0.252,-0.657 -0.627,-0.887 -0.996,-1.137c-0.368,-0.25 -0.78,-0.456 -1.223,-0.639c-0.84,-0.348 -1.763,-0.585 -2.686,-0.612c0.005,-0.012 0.011,-0.025 0.017,-0.037c0.089,-0.2 0.17,-0.336 0.23,-0.694c-0.043,0.257 -0.047,0.124 0.076,-0.045c0.122,-0.169 0.336,-0.423 0.621,-0.721c0.571,-0.597 1.426,-1.376 2.481,-2.247c1.191,-0.985 2.002,-1.698 2.549,-2.278c0.274,-0.29 0.486,-0.53 0.67,-0.883c0.092,-0.176 0.191,-0.39 0.206,-0.725c0.015,-0.334 -0.138,-0.816 -0.423,-1.099c-0.45,-0.448 -0.555,-0.338 -0.673,-0.368c-0.118,-0.03 -0.208,-0.044 -0.306,-0.058c-0.195,-0.028 -0.407,-0.046 -0.656,-0.062c-0.497,-0.032 -1.127,-0.051 -1.803,-0.051c-1.182,0 -1.813,-0.031 -2.519,0.164c-0.705,0.196 -1.182,0.654 -1.621,1.079c-0.286,0.277 -0.53,0.545 -0.732,0.818c-0.101,0.136 -0.192,0.264 -0.285,0.464c-0.017,0.035 -0.031,0.105 -0.048,0.147c-0.046,0.035 -0.061,0.053 -0.124,0.09c-0.241,0.142 -0.462,0.283 -0.67,0.443c-0.103,0.079 -0.202,0.159 -0.323,0.288c-0.12,0.129 -0.408,0.224 -0.408,0.983c0,-0.528 0.129,-0.523 0.137,-0.536c0.008,-0.013 -0.026,0.035 -0.082,0.1c-0.113,0.128 -0.312,0.331 -0.536,0.536c-0.449,0.409 -1.065,0.86 -1.251,0.958c-0.2,0.106 -0.386,0.225 -0.567,0.344c-0.4,-0.023 -0.665,0.051 -0.883,0.14c-0.228,0.095 -0.453,0.289 -0.673,0.426c-0.16,-0.214 -0.22,-0.277 -0.55,-0.766c-0.716,-1.062 -1.49,-2.579 -1.992,-4.04c-0.242,-0.703 -0.497,-1.408 -0.712,-1.982c-0.214,-0.574 -0.32,-0.906 -0.529,-1.292c-0.332,-0.614 -0.653,-0.753 -1.058,-1.027c-0.405,-0.274 -0.894,-0.558 -1.467,-0.855c-1.145,-0.595 -2.614,-1.244 -4.201,-1.842c-1.178,-0.443 -2.798,-0.893 -4.219,-1.226c-0.71,-0.167 -1.364,-0.304 -1.896,-0.388c-0.266,-0.043 -0.498,-0.073 -0.725,-0.086c-0.114,-0.007 -0.226,-0.008 -0.368,0.003c-0.142,0.011 -0.303,-0.018 -0.677,0.21c0.36,-0.219 0.45,-0.165 0.505,-0.169c0.056,-0.004 0.057,-0.002 0.042,-0.003c-0.032,-0.002 -0.139,-0.013 -0.272,-0.034c-0.266,-0.042 -0.651,-0.121 -1.054,-0.22c-1.944,-0.479 -7.411,-1.408 -9.324,-1.574c-0.268,-0.023 -0.566,-0.057 -0.808,-0.092c-0.241,-0.036 -0.504,-0.11 -0.367,-0.062c-0.58,-0.2 -1.192,-0.292 -1.756,-0.334c-0.281,-0.02 -0.534,-0.031 -0.821,0Zm15.326,13.701c0,0.323 0.063,0.405 0.106,0.495c-0.003,-0.007 0,0.001 -0.007,-0.014c-0.021,-0.046 -0.099,-0.074 -0.099,-0.481l0,0Zm17.778,2.123c-0.051,0.062 -0.08,0.043 -0.141,0.134c-0.011,0.016 -0.017,0.007 0.083,-0.093c0.009,-0.009 0.047,-0.03 0.058,-0.041l0,0Zm1.897,0.351c0.008,0.016 0.051,0.04 0.058,0.054c0.074,0.157 0.083,0.24 0.093,0.293c0.017,0.096 0.011,0.09 0.01,0.072c-0.002,-0.117 -0.117,-0.273 -0.161,-0.419l0,0Zm-14.409,4.603c0.204,0.075 0.321,0.211 0.636,0.144c-0.011,0.001 -0.015,0 -0.028,0c-0.063,0.001 -0.306,-0.031 -0.305,-0.031c0,0 -0.296,-0.106 -0.296,-0.106c0,0 -0.006,-0.007 -0.007,-0.007l0,0Z" style="fill:#848484;fill-rule:nonzero;"/><path id="path3967.-8" d="M6.183,8.957c0,0.136 -0.095,0.275 -0.188,0.398c0.016,-0.013 0.02,-0.01 0.041,-0.031c0.068,-0.07 0.147,-0.221 0.147,-0.367Zm-0.223,0.47c-0.014,0.015 -0.012,0.043 -0.027,0.055c-0.087,0.069 -0.158,0.072 -0.234,0.093c0.052,0.068 0.072,0.158 0.21,0.192c0.231,0.058 0.432,0.148 0.604,0.261c0.087,0.057 0.168,0.117 0.248,0.206c0.079,0.09 0.192,0.213 0.192,0.481c0,-0.25 -0.076,-0.272 -0.086,-0.285c-0.01,-0.012 0.006,0.008 0.034,0.035c0.057,0.052 0.166,0.142 0.306,0.247c0.28,0.21 0.685,0.485 1.13,0.77c0.891,0.569 1.967,1.186 2.56,1.449c0.453,0.201 0.962,0.553 1.312,0.876c0.189,0.175 0.658,0.396 0.694,0.402c0.282,0.05 0.49,0.166 0.722,0.306c0.232,0.14 0.465,0.312 0.67,0.498c0.134,0.122 0.3,0.238 0.436,0.313c0.136,0.074 0.287,0.086 0.161,0.086c0.286,0 0.45,0.075 0.667,0.158c0.216,0.082 0.441,0.185 0.646,0.292c0.504,0.262 1.301,0.622 1.982,0.907c0.341,0.142 0.653,0.268 0.886,0.354c0.117,0.042 0.214,0.074 0.275,0.092c0.061,0.019 0.169,-0.005 -0.045,0.011c0.239,-0.018 0.333,0.051 0.426,0.099c0.094,0.048 0.172,0.103 0.251,0.162c0.158,0.117 0.315,0.26 0.467,0.412c0.152,0.152 0.297,0.312 0.416,0.471c0.059,0.079 0.113,0.157 0.162,0.247c0.048,0.091 0.107,0.179 0.109,0.392c-0.001,-0.166 -0.036,-0.182 -0.041,-0.193c-0.005,-0.01 0.004,0.003 0.018,0.024c0.027,0.042 0.082,0.117 0.154,0.206c0.144,0.18 0.357,0.423 0.591,0.67c0.252,0.267 0.479,0.523 0.653,0.739c0.086,0.108 0.158,0.205 0.22,0.299c0.03,0.047 0.06,0.092 0.089,0.151c0.029,0.059 0.075,0.108 0.075,0.309c0,-0.147 -0.024,-0.155 -0.027,-0.161c-0.002,-0.007 0.005,0.008 0.017,0.031c0.024,0.045 0.071,0.125 0.131,0.216c0.119,0.183 0.291,0.424 0.474,0.66c0.442,0.57 1.258,1.881 1.958,3.016c0.412,0.669 0.751,1.15 0.989,1.426c0.098,0.112 0.161,0.164 0.207,0.202c0.026,-0.004 0.049,-0.014 0.079,-0.017c0.051,-0.005 0.105,-0.011 0.209,0.007c0.052,0.009 0.123,0.022 0.21,0.072c0.043,0.025 0.132,0.109 0.134,0.11c0.001,0.001 0.116,0.177 0.117,0.179c0,0.001 0.044,0.136 0.048,0.199c0.003,0.063 -0.007,0.119 -0.018,0.165c-0.02,0.091 -0.049,0.146 -0.075,0.189c-0.052,0.085 -0.094,0.122 -0.131,0.158c-0.03,0.029 -0.062,0.051 -0.092,0.075c0.029,0.054 0.037,0.091 0.175,0.289c0.686,0.99 0.952,1.735 1.037,2.869c0.017,0.227 0.044,0.49 0.079,0.711c0.035,0.221 0.094,0.427 0.093,0.426c0.121,0.283 0.095,0.685 -0.072,0.955c-0.168,0.27 -0.4,0.45 -0.694,0.639c-0.398,0.256 -1.334,0.873 -2.085,1.371c-0.59,0.39 -1.492,0.818 -2.354,1.216c0.143,0.035 0.296,0.048 0.399,0.147c0.13,0.127 0.166,0.235 0.206,0.337c0.005,0.001 -0.016,-0.002 0.038,0.004c0.186,0.019 0.642,-0.003 1.391,-0.073c0.474,-0.044 0.965,-0.114 1.361,-0.188c0.395,-0.075 0.746,-0.196 0.728,-0.186c0.341,-0.183 0.711,-0.225 1.223,-0.247c0.511,-0.023 1.157,0.001 1.961,0.072c3.304,0.291 3.694,0.312 5.641,-0.151c5.715,-1.36 7.514,-2.161 10.424,-4.607c0.451,-0.38 1.06,-0.566 1.676,-0.705c0.308,-0.069 0.612,-0.115 0.89,-0.123c0.278,-0.009 0.528,-0.054 0.862,0.213c-0.119,-0.095 0.192,0.043 0.461,0.034c0.084,-0.003 0.15,-0.016 0.223,-0.027c-0.027,-0.048 -0.029,-0.074 -0.069,-0.127c-0.189,-0.252 -0.532,-0.482 -0.649,-0.505c-0.27,-0.054 -0.527,-0.143 -0.756,-0.262c-0.229,-0.118 -0.464,-0.217 -0.608,-0.594c0.023,0.061 -0.08,-0.108 -0.306,-0.258c-0.225,-0.15 -0.548,-0.314 -0.907,-0.46c-0.718,-0.292 -1.598,-0.505 -2.147,-0.505c-0.766,0 -1.342,-0.013 -1.773,-0.491c-0.215,-0.239 -0.287,-0.592 -0.247,-0.876c0.04,-0.285 0.152,-0.537 0.302,-0.811c0.082,-0.149 0.165,-0.318 0.227,-0.457c0.062,-0.139 0.099,-0.278 0.093,-0.24c0.054,-0.324 0.203,-0.551 0.402,-0.832c0.199,-0.281 0.462,-0.595 0.787,-0.941c0.648,-0.693 1.545,-1.52 2.641,-2.426c1.169,-0.965 1.956,-1.657 2.388,-2.102c0.005,-0.006 0.005,-0.005 0.01,-0.01c-0.436,-0.028 -1.015,-0.048 -1.642,-0.048c-1.18,0 -1.761,0.009 -2.034,0.075c-0.273,0.067 -0.364,0.158 -0.803,0.584c-0.219,0.212 -0.411,0.44 -0.523,0.601c-0.049,0.072 -0.075,0.123 -0.086,0.145c0,0.023 0.018,0.054 0.014,0.075c-0.019,0.124 -0.06,0.207 -0.099,0.272c-0.079,0.129 -0.16,0.2 -0.244,0.274c-0.17,0.15 -0.371,0.287 -0.602,0.423c-0.18,0.106 -0.349,0.23 -0.456,0.323c-0.054,0.046 -0.092,0.087 -0.1,0.096c-0.008,0.009 0.072,0.044 0.072,-0.261c0,0.293 -0.098,0.375 -0.168,0.481c-0.071,0.106 -0.151,0.205 -0.244,0.309c-0.187,0.208 -0.424,0.437 -0.687,0.67c-0.527,0.465 -1.127,0.934 -1.629,1.199c-0.17,0.09 -0.355,0.211 -0.498,0.323c-0.143,0.112 -0.263,0.256 -0.223,0.196c-0.053,0.079 -0.108,0.155 -0.21,0.237c-0.101,0.082 -0.308,0.209 -0.584,0.134c-0.136,-0.037 -0.149,-0.129 -0.22,-0.21c-0.194,0.098 -0.487,0.273 -0.869,0.577c-0.137,0.11 -0.346,0.247 -0.632,0.244c-0.285,-0.003 -0.517,-0.146 -0.69,-0.302c-0.347,-0.311 -0.661,-0.774 -1.223,-1.608c-0.836,-1.239 -1.601,-2.915 -2.158,-4.535c-0.236,-0.686 -0.484,-1.364 -0.69,-1.903c-0.207,-0.539 -0.399,-0.984 -0.426,-1.034c0.033,0.062 -0.149,-0.16 -0.461,-0.371c-0.312,-0.211 -0.752,-0.467 -1.281,-0.742c-1.059,-0.55 -2.475,-1.178 -3.999,-1.752c-1.036,-0.39 -2.632,-0.853 -3.992,-1.185c-0.68,-0.166 -1.304,-0.3 -1.762,-0.378c-0.23,-0.039 -0.42,-0.064 -0.54,-0.072c-0.06,-0.004 -0.105,-0.004 -0.113,-0.004c-0.009,0.001 0.015,0.027 0.155,-0.058c-0.167,0.101 -0.236,0.091 -0.306,0.1c-0.071,0.008 -0.132,0.01 -0.199,0.01c-0.135,-0.001 -0.284,-0.015 -0.457,-0.035c-0.347,-0.039 -0.779,-0.113 -1.237,-0.226c-1.656,-0.408 -7.473,-1.39 -9.039,-1.526c-0.307,-0.026 -0.633,-0.061 -0.917,-0.103c-0.285,-0.041 -0.491,-0.07 -0.704,-0.144c-0.323,-0.111 -0.864,-0.21 -1.282,-0.24c-0.185,-0.014 -0.331,-0.011 -0.426,-0.004l0,0Zm39.054,10.382c0.069,0.112 0.071,0.24 0.069,0.354c0.002,-0.008 0.001,0 0.003,-0.017c0.008,-0.049 0.034,-0.167 -0.072,-0.337l0,0Z" style="fill:#fff;fill-rule:nonzero;stroke:#848484;stroke-width:0.41px;"/><path id="path4011" d="M36.984,25.165c0.638,1.31 1.77,2.301 2.337,2.621l3.44,-0.667c-3.518,0 -4.24,-2.592 -4.24,-2.592l-1.037,-0.926l-0.5,1.564Z" style="fill:#848484;fill-rule:nonzero;stroke:#848484;stroke-width:0.18px;stroke-linejoin:miter;stroke-miterlimit:4;"/></g></g></svg>