<?xml version="1.0" encoding="UTF-8" standalone="no"?><!DOCTYPE svg PUBLIC "-//W3C//DTD SVG 1.1//EN" "http://www.w3.org/Graphics/SVG/1.1/DTD/svg11.dtd"><svg width="100%" height="100%" viewBox="0 0 37 54" version="1.1" xmlns="http://www.w3.org/2000/svg" xmlns:xlink="http://www.w3.org/1999/xlink" xml:space="preserve" style="fill-rule:evenodd;clip-rule:evenodd;"><rect id="Icons" x="-551" y="-843.715" width="2941" height="1414.71" style="fill:none;"/><clipPath id="_clip1"><rect id="Icons1" x="-551" y="-843.715" width="2941" height="1414.71"/></clipPath><g clip-path="url(#_clip1)"><clipPath id="_clip2"><polygon id="distance" points="-10.636,24.603 19.14,-4.09 47.833,25.686 18.057,54.379 -10.636,24.603 "/></clipPath><g clip-path="url(#_clip2)"><g id="Layer-1"><path id="path3829.-7" d="M20.726,12.454l-4.496,-0.2l-0.01,27.087l4.105,0.094l0.401,-26.981Z" style="fill:#fff;fill-rule:nonzero;stroke:#848484;stroke-width:1.62px;"/><path id="path3807" d="M14.52,40.58c2.269,-2.185 5.884,-2.118 8.07,0.15c2.186,2.268 2.119,5.884 -0.149,8.069c-2.268,2.186 -5.884,2.119 -8.07,-0.149c-2.186,-2.268 -2.119,-5.884 0.149,-8.07Z" style="fill:#fff;stroke:#848484;stroke-width:1.62px;"/><path id="path3807.-4" d="M15.02,2.966c2.268,-2.186 5.884,-2.119 8.07,0.149c2.186,2.269 2.119,5.884 -0.149,8.07c-2.269,2.186 -5.884,2.119 -8.07,-0.149c-2.186,-2.268 -2.119,-5.884 0.149,-8.07Z" style="fill:#fff;stroke:#848484;stroke-width:1.62px;"/></g></g></g></svg>