<?xml version="1.0" encoding="UTF-8" standalone="no"?><!DOCTYPE svg PUBLIC "-//W3C//DTD SVG 1.1//EN" "http://www.w3.org/Graphics/SVG/1.1/DTD/svg11.dtd"><svg width="100%" height="100%" viewBox="0 0 59 48" version="1.1" xmlns="http://www.w3.org/2000/svg" xmlns:xlink="http://www.w3.org/1999/xlink" xml:space="preserve" style="fill-rule:evenodd;clip-rule:evenodd;"><rect id="Icons" x="-461" y="-518.715" width="2941" height="1414.71" style="fill:none;"/><clipPath id="_clip1"><rect id="Icons1" x="-461" y="-518.715" width="2941" height="1414.71"/></clipPath><g clip-path="url(#_clip1)"><clipPath id="_clip2"><rect id="orbit_controls" x="5.529" y="-2.094" width="48.877" height="48.877"/></clipPath><g clip-path="url(#_clip2)"><g id="Layer-1"><path id="path3855.-7.-4" d="M25.907,40.558c-5.864,-0.612 -10.818,-2.777 -14.561,-6.365c-4.115,-3.942 -5.979,-9.411 -4.947,-14.515c0.276,-1.361 0.686,-2.584 0.868,-2.584c0.15,0 7.111,1.018 7.896,1.155l0.381,0.066l-0.348,0.899c-2.759,7.105 2.896,14.543 12.413,16.324c1.814,0.34 5.807,0.305 7.654,-0.066c4.061,-0.815 7.183,-2.418 9.756,-5.008c0.715,-0.72 1.302,-1.41 1.304,-1.534c0.002,-0.124 0.019,-0.358 0.037,-0.52c0.031,-0.276 -0.107,-0.349 -2.181,-1.153c-1.217,-0.473 -2.175,-0.894 -2.127,-0.937c0.08,-0.072 6.882,-2.103 7.347,-2.194c0.161,-0.031 0.684,0.757 2.219,3.344c1.105,1.862 2.009,3.401 2.009,3.42c0,0.019 -1.08,-0.387 -2.401,-0.904l-2.401,-0.938l-0.552,0.984c-1.232,2.194 -2.45,3.695 -4.168,5.137c-4.116,3.454 -9.262,5.291 -15.259,5.447c-1.048,0.027 -2.371,0.001 -2.939,-0.058l0,0Zm2.614,-13.746c-2.834,-0.476 -5.289,-2.769 -6.034,-5.635c-0.643,-2.476 0.09,-5.17 1.923,-7.069c1.45,-1.501 3.262,-2.278 5.327,-2.284c2.656,-0.007 4.889,1.205 6.463,3.507c0.137,0.201 0.435,0.857 0.662,1.459c0.388,1.027 0.412,1.183 0.407,2.553c-0.005,1.265 -0.05,1.586 -0.337,2.412c-0.575,1.655 -1.744,3.145 -3.098,3.947c-1.842,1.092 -3.434,1.425 -5.313,1.11l0,0Zm20.459,-3.988l-4.464,-0.683l0.087,-0.487c0.159,-0.881 0.081,-2.877 -0.148,-3.77c-1.28,-4.995 -6.353,-8.814 -12.937,-9.737c-1.865,-0.262 -5.241,-0.173 -7.009,0.185c-3.551,0.718 -7.721,2.74 -9.041,4.383l-0.371,0.461l1.545,0.58c0.85,0.319 1.701,0.646 1.891,0.725c0.318,0.133 0.025,0.226 -3.439,1.091c-2.082,0.52 -3.806,0.925 -3.832,0.899c-0.054,-0.054 -1.516,-5.264 -1.485,-5.292c0.011,-0.011 0.825,0.282 1.809,0.651l1.789,0.67l1.068,-1.037c1.299,-1.26 1.752,-1.629 3.036,-2.473c4.346,-2.857 10.281,-4.23 15.915,-3.682c10.911,1.062 19.495,8.372 20.303,17.289c0.07,0.766 0.054,0.938 -0.083,0.926c-0.093,-0.008 -2.178,-0.323 -4.634,-0.699l0,0Z" style="fill:#fff;fill-rule:nonzero;stroke:#848484;stroke-width:1.62px;"/></g></g></g></svg>