<?xml version="1.0" encoding="UTF-8" standalone="no"?><!DOCTYPE svg PUBLIC "-//W3C//DTD SVG 1.1//EN" "http://www.w3.org/Graphics/SVG/1.1/DTD/svg11.dtd"><svg width="100%" height="100%" viewBox="0 0 58 48" version="1.1" xmlns="http://www.w3.org/2000/svg" xmlns:xlink="http://www.w3.org/1999/xlink" xml:space="preserve" style="fill-rule:evenodd;clip-rule:evenodd;"><rect id="Icons" x="-442" y="-682.715" width="2941" height="1414.71" style="fill:none;"/><clipPath id="_clip1"><rect id="Icons1" x="-442" y="-682.715" width="2941" height="1414.71"/></clipPath><g clip-path="url(#_clip1)"><clipPath id="_clip2"><rect id="ortho" x="4.039" y="-2.353" width="51.625" height="51.625"/></clipPath><g clip-path="url(#_clip2)"><g id="Calque-1"><path id="path5" d="M37.492,9.42c0,1.271 -0.304,2.476 -0.846,3.534l-6.941,13.597c0,0 -6.996,-13.71 -7.023,-13.767c-0.49,-1.016 -0.763,-2.16 -0.763,-3.364c0,-4.301 3.485,-7.787 7.786,-7.787c4.301,0 7.787,3.486 7.787,7.787l0,0Zm-3.114,0c0,-2.58 -2.093,-4.673 -4.673,-4.673c-2.579,0 -4.672,2.093 -4.672,4.673c0,2.579 2.093,4.672 4.672,4.672c2.58,0 4.673,-2.093 4.673,-4.672l0,0Zm20.253,7.898l-16.658,-0.111l-1.591,3.115l15.67,-0.056c-0.074,10.42 -0.074,10.42 -0.081,21.97l-44.034,-0.055c-0.046,-10.612 -0.046,-12.376 -0.022,-21.859l15.117,0c-0.66,-1.29 -1.181,-2.308 -1.591,-3.115l-16.606,0l-0.048,28.033l49.836,0l0.008,-27.922Z" style="fill:#fff;fill-rule:nonzero;stroke:#848484;stroke-width:1.76px;"/><path id="path4590" d="M19.705,33.273l0.113,0.019l0.113,0.019l0.111,0.017l0.114,0.016l0.115,0.015l0.113,0.014l0.116,0.014l0.114,0.012l0.112,0.01l0.115,0.01l0.116,0.008l0.114,0.007l0.116,0.006l0.117,0.005l0.114,0.004l0.116,0.002l0.116,0.002l0.117,-0.001l0.118,-0.001l0.116,-0.003l0.116,-0.004l0.117,-0.005l0.12,-0.007l0.116,-0.008l0.119,-0.009l0.12,-0.011l0.117,-0.012l0.121,-0.014l0.117,-0.014l0.005,-0.001l0.559,3.994l-0.033,0.005l-0.169,0.021l-0.164,0.019l-0.166,0.017l-0.164,0.014l-0.164,0.014l-0.166,0.011l-0.161,0.009l-0.163,0.007l-0.162,0.006l-0.163,0.004l-0.16,0.001l-0.16,0.001l-0.16,-0.002l-0.159,-0.003l-0.161,-0.005l-0.157,-0.007l-0.156,-0.008l-0.158,-0.01l-0.155,-0.011l-0.156,-0.013l-0.157,-0.015l-0.154,-0.016l-0.152,-0.018l-0.154,-0.019l-0.151,-0.02l-0.151,-0.021l-0.152,-0.024l-0.15,-0.024l-0.15,-0.026l-0.029,-0.005l0.724,-3.968l0.01,0.002Zm30.57,-1.768l0.292,0.181l0.278,0.17l0.13,0.077l0.127,0.076l0.123,0.071l0.117,0.068l0.113,0.063l0.106,0.058l0.101,0.054l0.095,0.049l0.088,0.043l0.081,0.039l0.075,0.033l0.07,0.03l0.023,0.009l0.026,0.01l0.028,0.01l0.021,0.008l0.014,0.004l0.017,0.006l0.015,0.004l0.012,0.003l0.005,0.001l0.004,0.001l-0.005,-0.001l-0.015,-0.002l-0.011,-0.001l-0.015,-0.002l-0.025,-0.001l-0.022,-0.001l-0.033,0l-0.036,0.002l-0.031,0.002l-0.051,0.006l-0.053,0.009l-0.04,0.008l-0.058,0.014l-0.058,0.018l-0.053,0.019l-0.067,0.028l-0.058,0.028l-0.051,0.027l-0.056,0.033l-0.058,0.04l-0.054,0.04l-0.05,0.042l-0.042,0.039l-0.041,0.041l-0.039,0.044l-0.029,0.035l-0.023,0.031l3.224,2.423l-0.024,0.032l-0.079,0.097l-0.091,0.102l-0.094,0.095l-0.097,0.09l-0.107,0.09l-0.113,0.085l-0.119,0.08l-0.118,0.07l-0.114,0.062l-0.124,0.059l-0.134,0.055l-0.121,0.043l-0.128,0.04l-0.13,0.031l-0.113,0.024l-0.128,0.021l-0.127,0.015l-0.11,0.008l-0.115,0.005l-0.114,0l-0.105,-0.003l-0.11,-0.007l-0.101,-0.009l-0.099,-0.012l-0.103,-0.016l-0.096,-0.017l-0.088,-0.018l-0.093,-0.021l-0.091,-0.023l-0.085,-0.024l-0.084,-0.024l-0.082,-0.026l-0.088,-0.029l-0.081,-0.029l-0.076,-0.028l-0.081,-0.031l-0.084,-0.033l-0.149,-0.063l-0.15,-0.068l-0.149,-0.07l-0.15,-0.074l-0.147,-0.076l-0.147,-0.077l-0.148,-0.082l-0.147,-0.082l-0.147,-0.084l-0.148,-0.087l-0.149,-0.088l-0.153,-0.092l-0.301,-0.184l-0.309,-0.191l-0.038,-0.024l2.135,-3.422l0.033,0.021Zm-18.459,2.15l-0.029,0.022l-0.14,0.109l-0.164,0.127l-0.173,0.132l-0.173,0.129l-0.174,0.127l-0.173,0.124l-0.173,0.12l-0.172,0.118l-0.174,0.116l-0.173,0.113l-0.173,0.111l-0.174,0.107l-0.173,0.106l-0.174,0.102l-0.172,0.1l-0.174,0.098l-0.173,0.095l-0.171,0.091l-0.175,0.091l-0.173,0.087l-0.172,0.085l-0.13,0.062l-1.735,-3.641l0.108,-0.052l0.133,-0.065l0.132,-0.066l0.13,-0.068l0.135,-0.072l0.134,-0.073l0.133,-0.075l0.135,-0.079l0.135,-0.079l0.135,-0.082l0.136,-0.085l0.137,-0.087l0.137,-0.09l0.137,-0.091l0.139,-0.095l0.139,-0.098l0.139,-0.099l0.14,-0.102l0.139,-0.104l0.141,-0.107l0.151,-0.117l0.154,-0.12l0.044,-0.034l2.444,3.209Zm-18.762,-3.102l0.185,0.107l0.188,0.107l0.189,0.107l0.19,0.107l0.194,0.107l0.194,0.105l0.194,0.105l0.198,0.104l0.199,0.103l0.2,0.102l0.201,0.1l0.204,0.099l0.204,0.098l0.206,0.095l0.209,0.095l0.208,0.091l0.062,0.027l-1.582,3.71l-0.084,-0.036l-0.249,-0.11l-0.244,-0.11l-0.242,-0.112l-0.239,-0.114l-0.234,-0.114l-0.233,-0.116l-0.229,-0.117l-0.225,-0.117l-0.223,-0.117l-0.22,-0.118l-0.215,-0.117l-0.212,-0.117l-0.21,-0.117l-0.206,-0.117l-0.202,-0.115l-0.2,-0.116l-0.14,-0.082l2.032,-3.483l0.132,0.076Zm29.551,-2.839l0.133,0.038l0.132,0.039l0.132,0.041l0.129,0.04l0.13,0.042l0.128,0.042l0.128,0.044l0.127,0.044l0.127,0.044l0.126,0.046l0.126,0.047l0.123,0.046l0.123,0.047l0.124,0.049l0.125,0.05l0.239,0.099l0.24,0.102l0.236,0.103l0.233,0.106l0.229,0.107l0.228,0.109l0.224,0.11l0.22,0.11l0.218,0.112l0.053,0.028l-1.871,3.573l-0.039,-0.021l-0.187,-0.096l-0.189,-0.094l-0.188,-0.093l-0.19,-0.091l-0.193,-0.089l-0.192,-0.088l-0.194,-0.085l-0.194,-0.083l-0.199,-0.081l-0.096,-0.039l-0.097,-0.038l-0.1,-0.038l-0.1,-0.038l-0.099,-0.036l-0.099,-0.036l-0.099,-0.036l-0.101,-0.034l-0.1,-0.034l-0.101,-0.034l-0.1,-0.032l-0.102,-0.032l-0.101,-0.031l-0.101,-0.03l-0.101,-0.029l-0.073,-0.02l1.081,-3.886l0.092,0.026Zm-34.448,3.691l-0.003,0.01l-0.004,0.016l-0.005,0.018l-0.005,0.024l-0.006,0.027l-0.006,0.031l-0.006,0.036l-0.006,0.04l-0.006,0.044l-0.005,0.047l-0.006,0.051l-0.004,0.056l-0.005,0.059l-0.004,0.063l-0.003,0.066l-0.003,0.07l-0.001,0.073l-0.002,0.088l-4.033,-0.062l0.002,-0.109l0.003,-0.117l0.004,-0.117l0.006,-0.115l0.007,-0.114l0.008,-0.112l0.01,-0.111l0.012,-0.111l0.013,-0.11l0.014,-0.108l0.017,-0.109l0.018,-0.107l0.02,-0.108l0.022,-0.107l0.025,-0.107l0.027,-0.107l0.029,-0.105l0.033,-0.107l0.036,-0.107l0.038,-0.106l0.043,-0.109l0.046,-0.106l0.049,-0.104l0.054,-0.107l0.06,-0.108l0.064,-0.107l0.068,-0.103l0.076,-0.107l0.08,-0.102l0.082,-0.097l0.093,-0.101l0.094,-0.092l0.103,-0.094l0.109,-0.087l0.104,-0.078l0.119,-0.08l0.119,-0.071l0.115,-0.062l0.131,-0.063l0.127,-0.053l0.116,-0.042l0.13,-0.042l0.13,-0.034l0.117,-0.026l0.123,-0.023l0.123,-0.017l0.121,-0.012l0.12,-0.007l0.105,-0.003l0.11,0l0.115,0.005l0.107,0.007l0.106,0.01l0.103,0.013l0.097,0.015l0.096,0.016l0.1,0.02l0.093,0.021l0.093,0.022l0.092,0.024l0.09,0.026l0.086,0.026l0.085,0.027l0.089,0.03l0.085,0.03l0.084,0.031l0.084,0.032l0.087,0.034l0.158,0.066l0.033,0.015l-1.519,3.453l0.017,-0.008l0.044,-0.024l0.048,-0.028l0.051,-0.035l0.038,-0.028l0.044,-0.035l0.04,-0.037l0.033,-0.032l0.034,-0.037l0.025,-0.029l0.024,-0.03l0.021,-0.031l0.016,-0.024l0.015,-0.024l0.01,-0.02l0.008,-0.015l0.004,-0.008l0.003,-0.007l0.002,-0.005l-0.001,0.003l-0.002,0.005Zm29.914,-0.239l-0.021,0.001l-0.109,0.006l-0.109,0.007l-0.108,0.008l-0.108,0.01l-0.109,0.01l-0.11,0.013l-0.11,0.013l-0.11,0.015l-0.109,0.016l-0.11,0.018l-0.115,0.02l-0.11,0.02l-0.11,0.022l-0.114,0.024l-0.113,0.025l-0.111,0.026l-0.114,0.028l-0.113,0.029l-0.113,0.031l-0.116,0.034l-0.115,0.034l-0.115,0.036l-0.116,0.038l-0.116,0.039l-0.116,0.041l-0.116,0.042l-0.119,0.045l-0.117,0.046l-0.072,0.029l-1.518,-3.736l0.094,-0.038l0.162,-0.064l0.161,-0.061l0.163,-0.06l0.163,-0.057l0.161,-0.055l0.162,-0.052l0.161,-0.05l0.161,-0.049l0.16,-0.045l0.161,-0.044l0.162,-0.042l0.159,-0.04l0.161,-0.038l0.16,-0.035l0.157,-0.033l0.161,-0.032l0.16,-0.029l0.154,-0.027l0.16,-0.025l0.159,-0.024l0.156,-0.021l0.157,-0.02l0.156,-0.017l0.156,-0.016l0.157,-0.014l0.156,-0.012l0.153,-0.01l0.153,-0.008l0.044,-0.002l0.172,4.03Z" style="fill:#fff;"/></g></g></g></svg>