<?xml version="1.0" encoding="UTF-8" standalone="no"?><!DOCTYPE svg PUBLIC "-//W3C//DTD SVG 1.1//EN" "http://www.w3.org/Graphics/SVG/1.1/DTD/svg11.dtd"><svg width="100%" height="100%" viewBox="0 0 59 48" version="1.1" xmlns="http://www.w3.org/2000/svg" xmlns:xlink="http://www.w3.org/1999/xlink" xml:space="preserve" style="fill-rule:evenodd;clip-rule:evenodd;"><rect id="Icons" x="-360" y="-682.715" width="2941" height="1414.71" style="fill:none;"/><clipPath id="_clip1"><rect id="Icons1" x="-360" y="-682.715" width="2941" height="1414.71"/></clipPath><g clip-path="url(#_clip1)"><clipPath id="_clip2"><rect id="perspective" x="2.847" y="-3.385" width="51.625" height="51.625"/></clipPath><g clip-path="url(#_clip2)"><g id="Calque-1"><path id="path5" d="M24.071,30.422l1.163,2.909c-1.127,0.451 -2.251,0.793 -3.347,1.023l-0.64,-3.068c0.919,-0.194 1.868,-0.484 2.824,-0.864Zm-9.332,3.758c1.149,0.33 2.359,0.508 3.596,0.526l0.049,-3.136c-0.962,-0.018 -1.896,-0.149 -2.778,-0.403l-0.867,3.013l0,0Zm24.692,-5.473c0.904,0.178 1.786,0.487 2.622,0.919l1.44,-2.787c-1.103,-0.566 -2.264,-0.974 -3.455,-1.207l-0.607,3.075Zm-6.541,-2.572l0.937,2.988c0.958,-0.3 1.905,-0.489 2.817,-0.563l-0.25,-3.124c-1.146,0.092 -2.325,0.328 -3.504,0.699Zm-5.034,2.358c-0.352,0.22 -0.699,0.422 -1.039,0.612l1.525,2.738c0.383,-0.215 0.775,-0.441 1.167,-0.686c0.539,-0.334 1.066,-0.631 1.583,-0.895l-1.424,-2.792c-0.588,0.3 -1.194,0.64 -1.812,1.023l0,0Zm8.666,-19.541c0,1.28 -0.307,2.492 -0.852,3.558l-6.988,13.689c0,0 -7.043,-13.802 -7.071,-13.86c-0.493,-1.023 -0.768,-2.175 -0.768,-3.387c0,-4.331 3.509,-7.84 7.839,-7.84c4.33,0 7.84,3.509 7.84,7.84l0,0Zm-3.136,0c0,-2.597 -2.107,-4.704 -4.704,-4.704c-2.597,0 -4.704,2.107 -4.704,4.704c0,2.596 2.107,4.703 4.704,4.703c2.597,0 4.704,-2.107 4.704,-4.703Zm10.976,7.839l-7.356,0l-1.602,3.136l6.698,0l3.384,10.155l-1.081,1.195c1.151,1.04 1.748,1.999 1.752,2.003l0.33,-0.199l2.931,8.797l-41.474,0l3.142,-9.416c0.11,0.076 0.196,0.151 0.318,0.226l1.666,-2.652c-0.373,-0.236 -0.68,-0.469 -0.949,-0.686l3.142,-9.423l6.7,0c-0.664,-1.299 -1.188,-2.324 -1.601,-3.136l-7.359,0l-9.408,28.223l50.174,0l-9.407,-28.223Z" style="fill:#fff;fill-rule:nonzero;stroke:#848484;stroke-width:1.78px;"/></g></g></g></svg>