<?xml version="1.0" encoding="UTF-8" standalone="no"?><!DOCTYPE svg PUBLIC "-//W3C//DTD SVG 1.1//EN" "http://www.w3.org/Graphics/SVG/1.1/DTD/svg11.dtd"><svg width="100%" height="100%" viewBox="0 0 42 50" version="1.1" xmlns="http://www.w3.org/2000/svg" xmlns:xlink="http://www.w3.org/1999/xlink" xml:space="preserve" style="fill-rule:evenodd;clip-rule:evenodd;stroke-linejoin:round;stroke-miterlimit:1.41421;"><rect id="Icons" x="-917" y="-845.715" width="2941" height="1414.71" style="fill:none;"/><clipPath id="_clip1"><rect id="Icons1" x="-917" y="-845.715" width="2941" height="1414.71"/></clipPath><g clip-path="url(#_clip1)"><g id="Calque-1"><g id="path13015"><path d="M36.421,10.474l-31.158,28.976" style="fill:#848484;fill-rule:nonzero;"/><path d="M36.508,8.092l0.169,0.012l0.169,0.025l0.166,0.036l0.163,0.048l0.16,0.059l0.154,0.071l0.15,0.082l0.143,0.092l0.136,0.102l0.128,0.111l0.12,0.121l0.112,0.128l0.102,0.137l0.092,0.143l0.081,0.149l0.071,0.155l0.059,0.159l0.048,0.163l0.036,0.167l0.024,0.168l0.012,0.17l0,0.17l-0.012,0.17l-0.025,0.168l-0.036,0.166l-0.048,0.163l-0.059,0.16l-0.071,0.154l-0.082,0.15l-0.092,0.143l-0.102,0.136l-0.111,0.128l-0.121,0.121l-31.158,28.976l-0.129,0.112l-0.136,0.101l-0.143,0.092l-0.149,0.082l-0.155,0.07l-0.159,0.06l-0.164,0.048l-0.166,0.036l-0.168,0.024l-0.17,0.012l-0.17,0l-0.17,-0.013l-0.168,-0.024l-0.166,-0.036l-0.164,-0.048l-0.159,-0.06l-0.155,-0.07l-0.149,-0.082l-0.143,-0.092l-0.136,-0.102l-0.129,-0.112l-0.12,-0.12l-0.111,-0.129l-0.102,-0.136l-0.092,-0.143l-0.081,-0.149l-0.071,-0.155l-0.059,-0.159l-0.048,-0.164l-0.036,-0.166l-0.024,-0.168l-0.012,-0.17l0,-0.17l0.012,-0.17l0.024,-0.168l0.037,-0.166l0.048,-0.164l0.059,-0.159l0.071,-0.155l0.081,-0.149l0.093,-0.143l0.102,-0.136l0.111,-0.129l0.12,-0.12l31.159,-28.977l0.128,-0.111l0.136,-0.102l0.144,-0.092l0.149,-0.081l0.155,-0.071l0.159,-0.059l0.163,-0.048l0.167,-0.036l0.168,-0.024l0.17,-0.012l0.17,0Z" style="fill:#848484;"/></g><g id="path13015.-2"><path d="M6.868,10.062l28.674,29.984" style="fill:#848484;fill-rule:nonzero;"/><path d="M7.085,7.754l0.165,0.021l0.162,0.033l0.159,0.044l0.156,0.056l0.151,0.067l0.147,0.077l0.14,0.088l0.134,0.097l0.127,0.107l0.118,0.116l28.674,29.984l0.11,0.123l0.101,0.132l0.092,0.138l0.081,0.144l0.071,0.15l0.06,0.154l0.048,0.158l0.038,0.161l0.025,0.164l0.014,0.165l0.003,0.165l-0.01,0.165l-0.021,0.165l-0.033,0.162l-0.045,0.159l-0.056,0.156l-0.066,0.151l-0.078,0.147l-0.087,0.14l-0.098,0.134l-0.107,0.127l-0.115,0.118l-0.124,0.11l-0.131,0.101l-0.138,0.091l-0.144,0.082l-0.15,0.07l-0.154,0.06l-0.158,0.049l-0.161,0.037l-0.164,0.026l-0.165,0.014l-0.165,0.002l-0.166,-0.009l-0.164,-0.022l-0.162,-0.033l-0.159,-0.044l-0.156,-0.056l-0.152,-0.067l-0.146,-0.077l-0.14,-0.088l-0.134,-0.097l-0.127,-0.107l-0.118,-0.115l-28.674,-29.984l-0.11,-0.124l-0.101,-0.131l-0.092,-0.138l-0.081,-0.144l-0.071,-0.15l-0.06,-0.154l-0.048,-0.159l-0.038,-0.161l-0.025,-0.163l-0.014,-0.165l-0.003,-0.166l0.01,-0.165l0.021,-0.164l0.033,-0.162l0.045,-0.16l0.056,-0.156l0.066,-0.151l0.078,-0.146l0.087,-0.141l0.098,-0.134l0.106,-0.126l0.116,-0.119l0.124,-0.11l0.131,-0.101l0.138,-0.091l0.144,-0.081l0.15,-0.071l0.154,-0.06l0.158,-0.049l0.161,-0.037l0.164,-0.026l0.165,-0.014l0.165,-0.002l0.165,0.01Z" style="fill:#848484;"/></g></g></g></svg>